<svg xmlns="http://www.w3.org/2000/svg" viewBox="0 0 1200 600" role="img" aria-label="Ilustração: plateia diante de um palco iluminado"><defs><linearGradient id="g" x1="0" y1="0" x2="0" y2="1"><stop offset="0" stop-color="#16275c"/><stop offset="1" stop-color="#0d1b40"/></linearGradient></defs><rect width="1200" height="600" fill="url(#g)"/><rect x="250" y="60" width="700" height="10" fill="#9aa7c7"/><rect x="250" y="100" width="700" height="10" fill="#9aa7c7"/><line x1="250" y1="65" x2="270" y2="105" stroke="#9aa7c7" stroke-width="5"/><line x1="270" y1="105" x2="290" y2="65" stroke="#9aa7c7" stroke-width="5"/><line x1="290" y1="65" x2="310" y2="105" stroke="#9aa7c7" stroke-width="5"/><line x1="310" y1="105" x2="330" y2="65" stroke="#9aa7c7" stroke-width="5"/><line x1="330" y1="65" x2="350" y2="105" stroke="#9aa7c7" stroke-width="5"/><line x1="350" y1="105" x2="370" y2="65" stroke="#9aa7c7" stroke-width="5"/><line x1="370" y1="65" x2="390" y2="105" stroke="#9aa7c7" stroke-width="5"/><line x1="390" y1="105" x2="410" y2="65" stroke="#9aa7c7" stroke-width="5"/><line x1="410" y1="65" x2="430" y2="105" stroke="#9aa7c7" stroke-width="5"/><line x1="430" y1="105" x2="450" y2="65" stroke="#9aa7c7" stroke-width="5"/><line x1="450" y1="65" x2="470" y2="105" stroke="#9aa7c7" stroke-width="5"/><line x1="470" y1="105" x2="490" y2="65" stroke="#9aa7c7" stroke-width="5"/><line x1="490" y1="65" x2="510" y2="105" stroke="#9aa7c7" stroke-width="5"/><line x1="510" y1="105" x2="530" y2="65" stroke="#9aa7c7" stroke-width="5"/><line x1="530" y1="65" x2="550" y2="105" stroke="#9aa7c7" stroke-width="5"/><line x1="550" y1="105" x2="570" y2="65" stroke="#9aa7c7" stroke-width="5"/><line x1="570" y1="65" x2="590" y2="105" stroke="#9aa7c7" stroke-width="5"/><line x1="590" y1="105" x2="610" y2="65" stroke="#9aa7c7" stroke-width="5"/><line x1="610" y1="65" x2="630" y2="105" stroke="#9aa7c7" stroke-width="5"/><line x1="630" y1="105" x2="650" y2="65" stroke="#9aa7c7" stroke-width="5"/><line x1="650" y1="65" x2="670" y2="105" stroke="#9aa7c7" stroke-width="5"/><line x1="670" y1="105" x2="690" y2="65" stroke="#9aa7c7" stroke-width="5"/><line x1="690" y1="65" x2="710" y2="105" stroke="#9aa7c7" stroke-width="5"/><line x1="710" y1="105" x2="730" y2="65" stroke="#9aa7c7" stroke-width="5"/><line x1="730" y1="65" x2="750" y2="105" stroke="#9aa7c7" stroke-width="5"/><line x1="750" y1="105" x2="770" y2="65" stroke="#9aa7c7" stroke-width="5"/><line x1="770" y1="65" x2="790" y2="105" stroke="#9aa7c7" stroke-width="5"/><line x1="790" y1="105" x2="810" y2="65" stroke="#9aa7c7" stroke-width="5"/><line x1="810" y1="65" x2="830" y2="105" stroke="#9aa7c7" stroke-width="5"/><line x1="830" y1="105" x2="850" y2="65" stroke="#9aa7c7" stroke-width="5"/><line x1="850" y1="65" x2="870" y2="105" stroke="#9aa7c7" stroke-width="5"/><line x1="870" y1="105" x2="890" y2="65" stroke="#9aa7c7" stroke-width="5"/><line x1="890" y1="65" x2="910" y2="105" stroke="#9aa7c7" stroke-width="5"/><line x1="910" y1="105" x2="930" y2="65" stroke="#9aa7c7" stroke-width="5"/><line x1="930" y1="65" x2="950" y2="105" stroke="#9aa7c7" stroke-width="5"/><line x1="950" y1="105" x2="970" y2="65" stroke="#9aa7c7" stroke-width="5"/><rect x="366" y="115" width="28" height="34" rx="6" fill="#222c4f"/><circle cx="380" cy="155" r="10" fill="#f6b93b"/><rect x="586" y="115" width="28" height="34" rx="6" fill="#222c4f"/><circle cx="600" cy="155" r="10" fill="#ff7b7b"/><rect x="806" y="115" width="28" height="34" rx="6" fill="#222c4f"/><circle cx="820" cy="155" r="10" fill="#8fb0ff"/><polygon points="260,60 340,60 450,470 150,470" fill="#ffffff" fill-opacity="0.12"/><polygon points="350,60 430,60 500,470 200,470" fill="#ffffff" fill-opacity="0.12"/><polygon points="440,60 520,60 550,470 250,470" fill="#ffffff" fill-opacity="0.12"/><polygon points="530,60 610,60 600,470 300,470" fill="#ffffff" fill-opacity="0.12"/><polygon points="620,60 700,60 650,470 350,470" fill="#ffffff" fill-opacity="0.12"/><rect x="200" y="390" width="800" height="30" fill="#26346a"/><circle cx="20" cy="470" r="19" fill="#0b1838"/><rect x="-5" y="487" width="50" height="120" rx="26" fill="#0b1838"/><circle cx="89" cy="484" r="21" fill="#070f26"/><rect x="62" y="503" width="54" height="120" rx="26" fill="#070f26"/><circle cx="158" cy="470" r="23" fill="#0b1838"/><rect x="129" y="491" width="58" height="120" rx="26" fill="#0b1838"/><circle cx="200" cy="484" r="25" fill="#070f26"/><rect x="169" y="507" width="62" height="120" rx="26" fill="#070f26"/><circle cx="269" cy="470" r="19" fill="#0b1838"/><rect x="244" y="487" width="50" height="120" rx="26" fill="#0b1838"/><circle cx="338" cy="484" r="21" fill="#070f26"/><rect x="311" y="503" width="54" height="120" rx="26" fill="#070f26"/><circle cx="380" cy="470" r="23" fill="#0b1838"/><rect x="351" y="491" width="58" height="120" rx="26" fill="#0b1838"/><circle cx="449" cy="484" r="25" fill="#070f26"/><rect x="418" y="507" width="62" height="120" rx="26" fill="#070f26"/><circle cx="518" cy="470" r="19" fill="#0b1838"/><rect x="493" y="487" width="50" height="120" rx="26" fill="#0b1838"/><circle cx="560" cy="484" r="21" fill="#070f26"/><rect x="533" y="503" width="54" height="120" rx="26" fill="#070f26"/><circle cx="629" cy="470" r="23" fill="#0b1838"/><rect x="600" y="491" width="58" height="120" rx="26" fill="#0b1838"/><circle cx="698" cy="484" r="25" fill="#070f26"/><rect x="667" y="507" width="62" height="120" rx="26" fill="#070f26"/><circle cx="740" cy="470" r="19" fill="#0b1838"/><rect x="715" y="487" width="50" height="120" rx="26" fill="#0b1838"/><circle cx="809" cy="484" r="21" fill="#070f26"/><rect x="782" y="503" width="54" height="120" rx="26" fill="#070f26"/><circle cx="878" cy="470" r="23" fill="#0b1838"/><rect x="849" y="491" width="58" height="120" rx="26" fill="#0b1838"/><circle cx="920" cy="484" r="25" fill="#070f26"/><rect x="889" y="507" width="62" height="120" rx="26" fill="#070f26"/><circle cx="989" cy="470" r="19" fill="#0b1838"/><rect x="964" y="487" width="50" height="120" rx="26" fill="#0b1838"/><circle cx="1058" cy="484" r="21" fill="#070f26"/><rect x="1031" y="503" width="54" height="120" rx="26" fill="#070f26"/><circle cx="1100" cy="470" r="23" fill="#0b1838"/><rect x="1071" y="491" width="58" height="120" rx="26" fill="#0b1838"/><circle cx="1169" cy="484" r="25" fill="#070f26"/><rect x="1138" y="507" width="62" height="120" rx="26" fill="#070f26"/><circle cx="50" cy="530" r="19" fill="#08112b"/><rect x="25" y="547" width="50" height="120" rx="26" fill="#08112b"/><circle cx="119" cy="544" r="21" fill="#050a1d"/><rect x="92" y="563" width="54" height="120" rx="26" fill="#050a1d"/><circle cx="188" cy="530" r="23" fill="#08112b"/><rect x="159" y="551" width="58" height="120" rx="26" fill="#08112b"/><circle cx="230" cy="544" r="25" fill="#050a1d"/><rect x="199" y="567" width="62" height="120" rx="26" fill="#050a1d"/><circle cx="299" cy="530" r="19" fill="#08112b"/><rect x="274" y="547" width="50" height="120" rx="26" fill="#08112b"/><circle cx="368" cy="544" r="21" fill="#050a1d"/><rect x="341" y="563" width="54" height="120" rx="26" fill="#050a1d"/><circle cx="410" cy="530" r="23" fill="#08112b"/><rect x="381" y="551" width="58" height="120" rx="26" fill="#08112b"/><circle cx="479" cy="544" r="25" fill="#050a1d"/><rect x="448" y="567" width="62" height="120" rx="26" fill="#050a1d"/><circle cx="548" cy="530" r="19" fill="#08112b"/><rect x="523" y="547" width="50" height="120" rx="26" fill="#08112b"/><circle cx="590" cy="544" r="21" fill="#050a1d"/><rect x="563" y="563" width="54" height="120" rx="26" fill="#050a1d"/><circle cx="659" cy="530" r="23" fill="#08112b"/><rect x="630" y="551" width="58" height="120" rx="26" fill="#08112b"/><circle cx="728" cy="544" r="25" fill="#050a1d"/><rect x="697" y="567" width="62" height="120" rx="26" fill="#050a1d"/><circle cx="770" cy="530" r="19" fill="#08112b"/><rect x="745" y="547" width="50" height="120" rx="26" fill="#08112b"/><circle cx="839" cy="544" r="21" fill="#050a1d"/><rect x="812" y="563" width="54" height="120" rx="26" fill="#050a1d"/><circle cx="908" cy="530" r="23" fill="#08112b"/><rect x="879" y="551" width="58" height="120" rx="26" fill="#08112b"/><circle cx="950" cy="544" r="25" fill="#050a1d"/><rect x="919" y="567" width="62" height="120" rx="26" fill="#050a1d"/><circle cx="1019" cy="530" r="19" fill="#08112b"/><rect x="994" y="547" width="50" height="120" rx="26" fill="#08112b"/><circle cx="1088" cy="544" r="21" fill="#050a1d"/><rect x="1061" y="563" width="54" height="120" rx="26" fill="#050a1d"/><circle cx="1130" cy="530" r="23" fill="#08112b"/><rect x="1101" y="551" width="58" height="120" rx="26" fill="#08112b"/><circle cx="1199" cy="544" r="25" fill="#050a1d"/><rect x="1168" y="567" width="62" height="120" rx="26" fill="#050a1d"/><rect x="80" y="430" width="10" height="46" rx="5" fill="#f1c9a5"/><rect x="400" y="390" width="10" height="46" rx="5" fill="#f1c9a5"/><rect x="720" y="410" width="10" height="46" rx="5" fill="#f1c9a5"/><rect x="1040" y="430" width="10" height="46" rx="5" fill="#f1c9a5"/></svg>